<svg width="149" height="150" viewBox="0 0 149 150" fill="none" xmlns="http://www.w3.org/2000/svg">
<path d="M148.5 78.5C148.5 117.693 115.389 149.5 74.5 149.5C33.6114 149.5 0.5 117.693 0.5 78.5C0.5 39.3069 33.6114 7.5 74.5 7.5C115.389 7.5 148.5 39.3069 148.5 78.5Z" fill="url(#paint0_radial_2_83)" stroke="black"/>
<path d="M28.4609 82.32L28.8609 80.72H44.7009L44.3009 82.32H28.4609ZM36.8609 80.72C38.3543 80.72 39.6876 80.4267 40.8609 79.84C42.0343 79.2533 43.0476 78.48 43.9009 77.52C44.8076 76.56 45.5809 75.52 46.2209 74.4C46.8609 73.28 47.3943 72.1867 47.8209 71.12H49.6609C48.8076 73.5733 48.1943 75.5467 47.8209 77.04C47.4476 78.48 47.0743 79.9733 46.7009 81.52C46.4343 82.48 46.1943 83.4133 45.9809 84.32C45.7676 85.2267 45.5276 86.2667 45.2609 87.44C45.0476 88.56 44.7543 90.0533 44.3809 91.92H42.6209C42.6743 90.8533 42.6476 89.76 42.5409 88.64C42.4876 87.52 42.2476 86.48 41.8209 85.52C41.3943 84.56 40.7009 83.7867 39.7409 83.2C38.8343 82.6133 37.5809 82.32 35.9809 82.32L36.8609 80.72ZM58.3009 67.76C58.5143 64.6133 58.3809 62.1333 57.9009 60.32C57.4209 58.4533 56.4876 57.1467 55.1009 56.4C53.7676 55.6 51.9009 55.2 49.5009 55.2H47.0209C45.2609 55.2 43.8743 55.36 42.8609 55.68C41.9009 55.9467 41.1276 56.56 40.5409 57.52C40.0076 58.4267 39.4743 59.8667 38.9409 61.84L28.3809 101.52C27.8476 103.44 27.6076 104.88 27.6609 105.84C27.7676 106.8 28.2209 107.44 29.0209 107.76C29.8743 108.027 31.1809 108.16 32.9409 108.16H35.9009C38.7809 108.16 41.2076 107.707 43.1809 106.8C45.1543 105.893 46.9143 104.427 48.4609 102.4C50.0609 100.32 51.6343 97.52 53.1809 94H55.0209C54.7543 94.6933 54.4609 95.5467 54.1409 96.56C53.8209 97.5733 53.5276 98.64 53.2609 99.76C52.9943 100.773 52.6476 102.24 52.2209 104.16C51.7943 106.027 51.4476 107.973 51.1809 110C48.4609 109.893 45.4209 109.84 42.0609 109.84C38.7009 109.787 35.6876 109.76 33.0209 109.76C31.6876 109.76 29.9809 109.76 27.9009 109.76C25.8743 109.76 23.6609 109.787 21.2609 109.84C18.8609 109.84 16.4343 109.867 13.9809 109.92C11.5276 109.92 9.2076 109.947 7.02094 110L7.42094 108.4C9.23427 108.293 10.6476 108.08 11.6609 107.76C12.6743 107.44 13.4476 106.8 13.9809 105.84C14.5676 104.88 15.1276 103.44 15.6609 101.52L26.2209 61.84C26.7543 59.8667 26.9676 58.4267 26.8609 57.52C26.7543 56.56 26.2743 55.92 25.4209 55.6C24.6209 55.2267 23.3143 55.0133 21.5009 54.96L21.9009 53.36C24.0876 53.4133 26.4076 53.4667 28.8609 53.52C31.3143 53.52 33.7409 53.5467 36.1409 53.6C38.5409 53.6 40.7543 53.6 42.7809 53.6C44.8609 53.6 46.5676 53.6 47.9009 53.6C50.3009 53.6 52.9943 53.6 55.9809 53.6C59.0209 53.5467 61.7409 53.4667 64.1409 53.36C63.4476 55.2267 62.8609 56.9067 62.3809 58.4C61.9009 59.8933 61.4743 61.36 61.1009 62.8C60.8876 63.76 60.6743 64.6667 60.4609 65.52C60.3009 66.3733 60.1676 67.12 60.0609 67.76H58.3009Z" fill="black"/>
<path d="M68.736 108.32C68.8027 108.667 68.8893 108.907 68.996 109.04C69.1027 109.173 69.2427 109.24 69.416 109.24C69.6027 109.24 69.7893 109.133 69.976 108.92C70.176 108.693 70.396 108.227 70.636 107.52L70.896 106.78H71.276L70.776 108.24C70.5893 108.8 70.3493 109.227 70.056 109.52C69.7627 109.813 69.4427 110.013 69.096 110.12C68.7493 110.227 68.416 110.28 68.096 110.28C67.5093 110.28 67.0093 110.14 66.596 109.86C66.196 109.58 65.956 109.067 65.876 108.32L65.076 101.34C65.0227 100.993 64.936 100.767 64.816 100.66C64.696 100.553 64.5493 100.5 64.376 100.5C64.256 100.5 64.136 100.54 64.016 100.62C63.896 100.687 63.7693 100.84 63.636 101.08C63.5027 101.307 63.3493 101.66 63.176 102.14L62.916 102.88H62.536L63.036 101.42C63.236 100.86 63.4827 100.433 63.776 100.14C64.0693 99.8467 64.396 99.6467 64.756 99.54C65.116 99.4333 65.4627 99.38 65.796 99.38C66.4227 99.38 66.9227 99.5267 67.296 99.82C67.6693 100.1 67.896 100.66 67.976 101.5L68.736 108.32ZM69.716 100.8C69.3827 101.173 69.0893 101.593 68.836 102.06C68.5827 102.527 68.3693 103 68.196 103.48C68.0227 103.947 67.876 104.373 67.756 104.76C67.756 104.76 67.6893 104.76 67.556 104.76C67.4227 104.747 67.356 104.74 67.356 104.74C67.4093 104.567 67.4827 104.327 67.576 104.02C67.6827 103.713 67.816 103.367 67.976 102.98C68.136 102.58 68.3293 102.18 68.556 101.78C68.7827 101.367 69.0427 100.973 69.336 100.6C69.7093 100.133 70.076 99.8133 70.436 99.64C70.8093 99.4667 71.176 99.38 71.536 99.38C71.9627 99.38 72.3093 99.4933 72.576 99.72C72.856 99.9467 72.996 100.273 72.996 100.7C72.996 101.113 72.856 101.46 72.576 101.74C72.296 102.007 71.936 102.14 71.496 102.14C71.1227 102.14 70.7693 102.033 70.436 101.82C70.116 101.607 69.876 101.267 69.716 100.8ZM63.856 108.86C64.3627 108.287 64.796 107.633 65.156 106.9C65.516 106.167 65.7893 105.5 65.976 104.9C65.976 104.9 66.036 104.907 66.156 104.92C66.2893 104.933 66.356 104.94 66.356 104.94C66.2493 105.313 66.1027 105.74 65.916 106.22C65.7293 106.687 65.496 107.167 65.216 107.66C64.9493 108.14 64.636 108.607 64.276 109.06C63.8893 109.513 63.5093 109.827 63.136 110C62.7627 110.187 62.4027 110.28 62.056 110.28C61.5893 110.28 61.2293 110.167 60.976 109.94C60.7227 109.713 60.596 109.407 60.596 109.02C60.596 108.567 60.7493 108.207 61.056 107.94C61.3493 107.66 61.7027 107.52 62.116 107.52C62.556 107.52 62.916 107.647 63.196 107.9C63.4893 108.153 63.7093 108.473 63.856 108.86ZM80.2046 100.44C79.9379 100.44 79.6446 100.613 79.3246 100.96C79.0179 101.293 78.7046 101.753 78.3846 102.34C78.0779 102.927 77.7846 103.593 77.5046 104.34C77.2246 105.087 76.9913 105.867 76.8046 106.68L77.1646 104.64C77.5913 103.387 78.0179 102.373 78.4446 101.6C78.8713 100.827 79.3179 100.267 79.7846 99.92C80.2646 99.56 80.7713 99.38 81.3046 99.38C82.1179 99.38 82.7313 99.6467 83.1446 100.18C83.5713 100.7 83.7846 101.46 83.7846 102.46C83.7846 103.073 83.6979 103.74 83.5246 104.46C83.3646 105.167 83.1179 105.867 82.7846 106.56C82.4513 107.24 82.0379 107.86 81.5446 108.42C81.0646 108.98 80.5113 109.433 79.8846 109.78C79.2579 110.113 78.5646 110.28 77.8046 110.28C77.3779 110.28 76.9846 110.2 76.6246 110.04C76.2779 109.88 76.0246 109.667 75.8646 109.4L76.0046 109.08C76.1379 109.307 76.2846 109.467 76.4446 109.56C76.6179 109.653 76.8113 109.7 77.0246 109.7C77.4246 109.7 77.8113 109.54 78.1846 109.22C78.5579 108.9 78.9046 108.473 79.2246 107.94C79.5579 107.407 79.8446 106.813 80.0846 106.16C80.3379 105.493 80.5313 104.813 80.6646 104.12C80.7979 103.413 80.8646 102.74 80.8646 102.1C80.8646 101.447 80.8046 101.007 80.6846 100.78C80.5646 100.553 80.4046 100.44 80.2046 100.44ZM76.8046 96.84C77.3646 96.8 77.8846 96.7333 78.3646 96.64C78.8579 96.5467 79.3313 96.4267 79.7846 96.28L75.4646 111.5C75.2779 112.193 75.3246 112.647 75.6046 112.86C75.8846 113.073 76.3513 113.187 77.0046 113.2L76.8846 113.62C76.5779 113.607 76.1379 113.587 75.5646 113.56C74.9913 113.547 74.3779 113.54 73.7246 113.54C73.1913 113.54 72.6579 113.547 72.1246 113.56C71.5913 113.587 71.1846 113.607 70.9046 113.62L71.0246 113.2C71.5046 113.2 71.8513 113.107 72.0646 112.92C72.2779 112.747 72.4513 112.427 72.5846 111.96L76.8046 96.84ZM72.9446 103C73.4246 102.48 73.8779 101.967 74.3046 101.46C74.7313 100.94 75.1446 100.327 75.5446 99.62C75.9446 98.9133 76.3579 98.0267 76.7846 96.96L76.8446 97.28C76.5646 98.2 76.2313 99.0133 75.8446 99.72C75.4713 100.413 75.0579 101.04 74.6046 101.6C74.1513 102.16 73.6713 102.713 73.1646 103.26L72.9446 103ZM87.0048 105.66C87.5514 105.447 88.0714 105.207 88.5648 104.94C89.0581 104.673 89.4781 104.38 89.8248 104.06C90.3448 103.593 90.7581 103.053 91.0648 102.44C91.3848 101.813 91.5448 101.14 91.5448 100.42C91.5448 100.153 91.5181 99.98 91.4648 99.9C91.4114 99.8067 91.3314 99.76 91.2248 99.76C90.9314 99.76 90.6114 99.9133 90.2648 100.22C89.9314 100.513 89.5981 100.913 89.2648 101.42C88.9314 101.913 88.6248 102.48 88.3448 103.12C88.0781 103.76 87.8581 104.427 87.6848 105.12C87.5248 105.813 87.4448 106.487 87.4448 107.14C87.4448 107.887 87.5848 108.4 87.8648 108.68C88.1581 108.947 88.5314 109.08 88.9848 109.08C89.3448 109.08 89.7914 108.96 90.3248 108.72C90.8581 108.48 91.3848 108.053 91.9048 107.44L92.2248 107.6C91.9448 108.04 91.5781 108.467 91.1248 108.88C90.6714 109.293 90.1448 109.633 89.5448 109.9C88.9448 110.153 88.2914 110.28 87.5848 110.28C86.9848 110.28 86.4448 110.173 85.9648 109.96C85.4981 109.747 85.1248 109.433 84.8448 109.02C84.5781 108.593 84.4448 108.073 84.4448 107.46C84.4448 106.753 84.5581 106.027 84.7848 105.28C85.0248 104.533 85.3581 103.813 85.7848 103.12C86.2114 102.413 86.7248 101.78 87.3248 101.22C87.9248 100.647 88.5914 100.2 89.3248 99.88C90.0581 99.5467 90.8381 99.38 91.6648 99.38C92.2514 99.38 92.7448 99.5133 93.1448 99.78C93.5448 100.033 93.7448 100.427 93.7448 100.96C93.7448 101.48 93.5981 101.967 93.3048 102.42C93.0248 102.873 92.6448 103.287 92.1648 103.66C91.6848 104.033 91.1448 104.367 90.5448 104.66C89.9581 104.953 89.3514 105.207 88.7248 105.42C88.1114 105.633 87.5314 105.8 86.9848 105.92L87.0048 105.66ZM96.8998 110H94.0798L96.4998 101.36C96.5664 101.173 96.6064 101.007 96.6198 100.86C96.6464 100.7 96.6331 100.58 96.5798 100.5C96.5264 100.407 96.4264 100.36 96.2798 100.36C96.0398 100.36 95.8198 100.473 95.6198 100.7C95.4331 100.913 95.2264 101.327 94.9998 101.94L94.6198 102.96H94.2398L94.7798 101.44C95.0464 100.68 95.3931 100.147 95.8198 99.84C96.2598 99.5333 96.7731 99.38 97.3598 99.38C97.8398 99.38 98.2064 99.4667 98.4598 99.64C98.7131 99.8 98.8798 100.02 98.9598 100.3C99.0531 100.58 99.0864 100.887 99.0598 101.22C99.0464 101.54 98.9998 101.86 98.9198 102.18L96.8998 110ZM97.5398 106.62C98.0598 105.167 98.5398 103.973 98.9798 103.04C99.4331 102.093 99.8731 101.353 100.3 100.82C100.74 100.287 101.186 99.9133 101.64 99.7C102.093 99.4867 102.58 99.38 103.1 99.38C103.74 99.38 104.2 99.52 104.48 99.8C104.76 100.08 104.9 100.453 104.9 100.92C104.9 101.373 104.813 101.867 104.64 102.4L102.68 108.3C102.546 108.673 102.513 108.933 102.58 109.08C102.646 109.227 102.766 109.3 102.94 109.3C103.113 109.3 103.306 109.207 103.52 109.02C103.733 108.82 103.96 108.387 104.2 107.72L104.56 106.76H104.94L104.44 108.22C104.253 108.78 104.006 109.207 103.7 109.5C103.406 109.793 103.086 109.993 102.74 110.1C102.406 110.22 102.08 110.28 101.76 110.28C101.373 110.28 101.046 110.22 100.78 110.1C100.513 109.993 100.306 109.833 100.16 109.62C99.9864 109.353 99.8998 109.02 99.8998 108.62C99.9131 108.207 100.02 107.7 100.22 107.1L102.02 101.7C102.1 101.487 102.153 101.28 102.18 101.08C102.206 100.88 102.2 100.713 102.16 100.58C102.12 100.447 102.006 100.38 101.82 100.38C101.566 100.38 101.28 100.547 100.96 100.88C100.64 101.2 100.3 101.653 99.9398 102.24C99.5931 102.813 99.2464 103.487 98.8998 104.26C98.5531 105.033 98.2198 105.86 97.8998 106.74C97.5798 107.607 97.2931 108.5 97.0398 109.42L97.5398 106.62ZM107.291 109.72C107.397 109.773 107.511 109.813 107.631 109.84C107.751 109.853 107.897 109.86 108.071 109.86C108.564 109.86 108.964 109.713 109.271 109.42C109.591 109.113 109.751 108.687 109.751 108.14C109.751 107.7 109.657 107.253 109.471 106.8C109.284 106.333 109.004 105.827 108.631 105.28C108.324 104.8 108.037 104.333 107.771 103.88C107.517 103.427 107.391 102.907 107.391 102.32C107.391 101.747 107.537 101.24 107.831 100.8C108.124 100.36 108.537 100.013 109.071 99.76C109.617 99.5067 110.271 99.38 111.031 99.38C111.524 99.38 111.997 99.44 112.451 99.56C112.917 99.68 113.304 99.8867 113.611 100.18C113.917 100.473 114.071 100.9 114.071 101.46C114.071 101.66 114.024 101.88 113.931 102.12C113.851 102.36 113.717 102.56 113.531 102.72C113.357 102.867 113.131 102.94 112.851 102.94C112.517 102.94 112.251 102.82 112.051 102.58C111.851 102.327 111.751 102 111.751 101.6C111.751 101.24 111.811 100.92 111.931 100.64C112.064 100.347 112.211 100.113 112.371 99.94C112.197 99.8333 111.964 99.78 111.671 99.78C111.191 99.78 110.811 99.9267 110.531 100.22C110.264 100.513 110.124 100.933 110.111 101.48C110.111 101.787 110.164 102.08 110.271 102.36C110.377 102.627 110.524 102.9 110.711 103.18C110.897 103.46 111.097 103.773 111.311 104.12C111.711 104.773 112.004 105.333 112.191 105.8C112.391 106.267 112.491 106.74 112.491 107.22C112.491 107.793 112.337 108.313 112.031 108.78C111.737 109.233 111.304 109.6 110.731 109.88C110.171 110.147 109.504 110.28 108.731 110.28C108.171 110.28 107.637 110.207 107.131 110.06C106.624 109.913 106.211 109.673 105.891 109.34C105.584 108.993 105.431 108.533 105.431 107.96C105.431 107.587 105.531 107.253 105.731 106.96C105.917 106.667 106.191 106.52 106.551 106.52C106.911 106.52 107.191 106.673 107.391 106.98C107.591 107.273 107.691 107.64 107.691 108.08C107.691 108.427 107.637 108.74 107.531 109.02C107.437 109.3 107.357 109.533 107.291 109.72ZM116.829 105.66C117.376 105.447 117.896 105.207 118.389 104.94C118.882 104.673 119.302 104.38 119.649 104.06C120.169 103.593 120.582 103.053 120.889 102.44C121.209 101.813 121.369 101.14 121.369 100.42C121.369 100.153 121.342 99.98 121.289 99.9C121.236 99.8067 121.156 99.76 121.049 99.76C120.756 99.76 120.436 99.9133 120.089 100.22C119.756 100.513 119.422 100.913 119.089 101.42C118.756 101.913 118.449 102.48 118.169 103.12C117.902 103.76 117.682 104.427 117.509 105.12C117.349 105.813 117.269 106.487 117.269 107.14C117.269 107.887 117.409 108.4 117.689 108.68C117.982 108.947 118.356 109.08 118.809 109.08C119.169 109.08 119.616 108.96 120.149 108.72C120.682 108.48 121.209 108.053 121.729 107.44L122.049 107.6C121.769 108.04 121.402 108.467 120.949 108.88C120.496 109.293 119.969 109.633 119.369 109.9C118.769 110.153 118.116 110.28 117.409 110.28C116.809 110.28 116.269 110.173 115.789 109.96C115.322 109.747 114.949 109.433 114.669 109.02C114.402 108.593 114.269 108.073 114.269 107.46C114.269 106.753 114.382 106.027 114.609 105.28C114.849 104.533 115.182 103.813 115.609 103.12C116.036 102.413 116.549 101.78 117.149 101.22C117.749 100.647 118.416 100.2 119.149 99.88C119.882 99.5467 120.662 99.38 121.489 99.38C122.076 99.38 122.569 99.5133 122.969 99.78C123.369 100.033 123.569 100.427 123.569 100.96C123.569 101.48 123.422 101.967 123.129 102.42C122.849 102.873 122.469 103.287 121.989 103.66C121.509 104.033 120.969 104.367 120.369 104.66C119.782 104.953 119.176 105.207 118.549 105.42C117.936 105.633 117.356 105.8 116.809 105.92L116.829 105.66Z" fill="black"/>
<path d="M104.753 18.36C106.673 18.36 108.167 18.9467 109.233 20.12C110.353 21.24 110.913 22.52 110.913 23.96C110.913 25.6667 110.407 27.16 109.393 28.44C108.433 29.72 107.1 30.76 105.393 31.56C103.793 32.3067 101.873 32.8933 99.6334 33.32C97.3934 33.6933 94.8601 33.88 92.0334 33.88C90.0601 33.88 87.9268 33.8 85.6334 33.64C83.3934 33.4267 81.0734 33.1867 78.6734 32.92C76.3268 32.6533 74.0068 32.44 71.7134 32.28C69.4734 32.0667 67.3668 31.96 65.3934 31.96C63.5801 31.96 61.8468 32.0667 60.1934 32.28C58.5401 32.44 57.2601 32.7867 56.3534 33.32C57.7401 33.6933 58.8868 34.4667 59.7934 35.64C60.7001 36.8133 61.1534 38.2 61.1534 39.8C61.1534 41.6133 60.5668 43.1867 59.3934 44.52C58.2734 45.8533 56.7801 46.52 54.9134 46.52C53.0468 46.52 51.6068 45.9067 50.5934 44.68C49.6334 43.4 49.1534 41.9067 49.1534 40.2C49.1534 38.92 49.5001 37.56 50.1934 36.12C50.9401 34.6267 52.3268 33.4 54.3534 32.44C55.6334 31.8 56.9668 31.3467 58.3534 31.08C59.7401 30.8133 61.0468 30.6533 62.2734 30.6C63.5001 30.5467 64.4334 30.52 65.0734 30.52C68.3801 30.52 71.6068 30.68 74.7534 31C77.9001 31.2667 80.9668 31.56 83.9534 31.88C86.9934 32.1467 89.9268 32.28 92.7534 32.28C94.8334 32.28 96.5668 32.1733 97.9534 31.96C99.3934 31.7467 100.7 31.4267 101.873 31L101.713 31.64C100.913 31 100.167 30.0933 99.4734 28.92C98.7801 27.7467 98.4334 26.4133 98.4334 24.92C98.4334 23 98.9934 21.4267 100.113 20.2C101.287 18.9733 102.833 18.36 104.753 18.36ZM75.1534 31.88C75.1534 31.88 75.5534 31.9333 76.3534 32.04C77.2068 32.0933 78.2468 32.1733 79.4734 32.28C80.7001 32.3867 81.9268 32.4933 83.1534 32.6C84.3801 32.7067 85.4201 32.8133 86.2734 32.92C87.1268 32.9733 87.5534 33 87.5534 33L75.6334 77.72C75.1534 79.64 74.9668 81.16 75.0734 82.28C75.2334 83.3467 75.8201 84.12 76.8334 84.6C77.9001 85.0267 79.5001 85.2933 81.6334 85.4L81.3134 87C79.6601 86.8933 77.5001 86.84 74.8334 86.84C72.1668 86.7867 69.3934 86.76 66.5134 86.76C63.7401 86.76 61.0734 86.7867 58.5134 86.84C56.0068 86.84 53.9801 86.8933 52.4334 87L52.7534 85.4C54.9934 85.2933 56.7534 85.0267 58.0334 84.6C59.3668 84.12 60.3801 83.3467 61.0734 82.28C61.8201 81.16 62.4334 79.64 62.9134 77.72L75.1534 31.88Z" fill="#1E3CFF"/>
<path d="M84.452 80H81.632L84.072 71.36C84.1654 71 84.192 70.7467 84.152 70.6C84.1254 70.44 84.0254 70.36 83.852 70.36C83.612 70.36 83.392 70.48 83.192 70.72C82.992 70.9467 82.7787 71.3533 82.552 71.94L82.172 72.96H81.792L82.332 71.44C82.532 70.9067 82.772 70.4933 83.052 70.2C83.332 69.9067 83.6454 69.7 83.992 69.58C84.352 69.4467 84.7187 69.38 85.092 69.38C85.5187 69.38 85.8454 69.4667 86.072 69.64C86.2987 69.8 86.452 70.02 86.532 70.3C86.612 70.58 86.6387 70.8867 86.612 71.22C86.5987 71.54 86.552 71.86 86.472 72.18L84.452 80ZM89.572 69.82C89.3054 69.82 89.0187 69.9 88.712 70.06C88.4054 70.22 88.092 70.5067 87.772 70.92C87.452 71.3333 87.112 71.9067 86.752 72.64C86.4054 73.3733 86.0454 74.3133 85.672 75.46C85.312 76.5933 84.9387 77.9667 84.552 79.58L84.992 76.88C85.4187 75.4133 85.8054 74.2 86.152 73.24C86.4987 72.28 86.8454 71.52 87.192 70.96C87.552 70.3867 87.9254 69.98 88.312 69.74C88.712 69.5 89.1654 69.38 89.672 69.38C90.192 69.38 90.592 69.5333 90.872 69.84C91.152 70.1467 91.292 70.5333 91.292 71C91.292 71.3733 91.2054 71.72 91.032 72.04C90.872 72.3467 90.6454 72.6 90.352 72.8C90.072 72.9867 89.752 73.08 89.392 73.08C89.0054 73.08 88.7054 72.98 88.492 72.78C88.2787 72.5667 88.172 72.2667 88.172 71.88C88.172 71.56 88.2454 71.2667 88.392 71C88.5387 70.72 88.7387 70.48 88.992 70.28C89.2454 70.08 89.5254 69.9467 89.832 69.88C89.792 69.8667 89.752 69.8533 89.712 69.84C89.672 69.8267 89.6254 69.82 89.572 69.82ZM93.9531 79.2C94.1665 79.2 94.3998 79.0867 94.6531 78.86C94.9065 78.6333 95.1665 78.3067 95.4331 77.88C95.6998 77.44 95.9598 76.9067 96.2131 76.28C96.4665 75.6533 96.6998 74.9267 96.9131 74.1L96.4731 76.28C96.1398 77.2667 95.7731 78.0533 95.3731 78.64C94.9731 79.2267 94.5465 79.6467 94.0931 79.9C93.6398 80.1533 93.1665 80.28 92.6731 80.28C91.9265 80.28 91.3665 80.06 90.9931 79.62C90.6198 79.18 90.4331 78.58 90.4331 77.82C90.4331 77.1 90.5531 76.3467 90.7931 75.56C91.0465 74.7733 91.3798 74.0133 91.7931 73.28C92.2198 72.5467 92.6931 71.8867 93.2131 71.3C93.7465 70.7133 94.3065 70.2467 94.8931 69.9C95.4931 69.5533 96.0798 69.38 96.6531 69.38C97.0931 69.38 97.4331 69.5533 97.6731 69.9C97.9131 70.2467 97.9865 70.7867 97.8931 71.52L97.6731 71.64C97.7398 71.16 97.7131 70.7867 97.5931 70.52C97.4865 70.2533 97.2998 70.12 97.0331 70.12C96.7665 70.12 96.4665 70.2733 96.1331 70.58C95.8131 70.8867 95.4931 71.3067 95.1731 71.84C94.8531 72.3733 94.5531 72.98 94.2731 73.66C94.0065 74.3267 93.7931 75.0333 93.6331 75.78C93.4731 76.5133 93.3931 77.24 93.3931 77.96C93.3931 78.4133 93.4398 78.7333 93.5331 78.92C93.6265 79.1067 93.7665 79.2 93.9531 79.2ZM98.1931 69.68C98.7665 69.6667 99.2865 69.64 99.7531 69.6C100.22 69.5467 100.666 69.4733 101.093 69.38L98.4731 78.3C98.4331 78.4733 98.3998 78.64 98.3731 78.8C98.3598 78.9467 98.3798 79.0667 98.4331 79.16C98.4998 79.2533 98.6065 79.3 98.7531 79.3C98.9265 79.3 99.1198 79.2 99.3331 79C99.5465 78.7867 99.7665 78.36 99.9931 77.72L100.353 76.76H100.733L100.233 78.22C100.046 78.7667 99.8065 79.1867 99.5131 79.48C99.2198 79.7733 98.9065 79.98 98.5731 80.1C98.2398 80.22 97.9131 80.28 97.5931 80.28C96.8998 80.28 96.4065 80.0733 96.1131 79.66C95.9131 79.3667 95.8198 79.0067 95.8331 78.58C95.8598 78.14 95.9531 77.64 96.1131 77.08L98.1931 69.68ZM108.765 69.78C108.272 69.78 107.785 69.9933 107.305 70.42C106.825 70.8333 106.392 71.3933 106.005 72.1C105.632 72.8067 105.332 73.6 105.105 74.48C104.879 75.36 104.765 76.2667 104.765 77.2C104.765 77.9067 104.905 78.42 105.185 78.74C105.465 79.0467 105.832 79.2 106.285 79.2C106.712 79.2 107.145 79.0733 107.585 78.82C108.025 78.5667 108.472 78.1067 108.925 77.44L109.325 77.6C109.059 78.04 108.712 78.4667 108.285 78.88C107.872 79.2933 107.385 79.6333 106.825 79.9C106.279 80.1533 105.659 80.28 104.965 80.28C104.032 80.28 103.265 80.0333 102.665 79.54C102.065 79.0333 101.765 78.2533 101.765 77.2C101.765 76.5467 101.865 75.86 102.065 75.14C102.279 74.42 102.579 73.72 102.965 73.04C103.352 72.3467 103.825 71.7267 104.385 71.18C104.945 70.6333 105.579 70.2 106.285 69.88C106.992 69.5467 107.759 69.38 108.585 69.38C109.319 69.38 109.905 69.5667 110.345 69.94C110.799 70.3 111.025 70.7533 111.025 71.3C111.025 71.66 110.939 72.0133 110.765 72.36C110.592 72.6933 110.352 72.9733 110.045 73.2C109.752 73.4133 109.419 73.52 109.045 73.52C108.725 73.52 108.452 73.42 108.225 73.22C108.012 73.0067 107.905 72.72 107.905 72.36C107.905 71.8133 108.085 71.3467 108.445 70.96C108.819 70.56 109.245 70.3 109.725 70.18C109.619 70.0467 109.485 69.9467 109.325 69.88C109.179 69.8133 108.992 69.78 108.765 69.78ZM113.323 80H110.503L114.463 66.66C114.597 66.2067 114.583 65.8733 114.423 65.66C114.263 65.4467 113.857 65.34 113.203 65.34L113.323 64.92C114.27 64.9067 115.117 64.8333 115.863 64.7C116.61 64.5533 117.317 64.3533 117.983 64.1L113.323 80ZM118.743 78.46C118.677 78.78 118.67 79 118.723 79.12C118.777 79.24 118.883 79.3 119.043 79.3C119.217 79.3 119.403 79.2 119.603 79C119.817 78.7867 120.037 78.36 120.263 77.72L120.623 76.76H121.003L120.503 78.22C120.317 78.7667 120.063 79.1933 119.743 79.5C119.437 79.7933 119.097 79.9933 118.723 80.1C118.363 80.22 117.997 80.28 117.623 80.28C116.97 80.28 116.503 80.0867 116.223 79.7C115.943 79.3 115.883 78.7267 116.043 77.98L116.383 76.44C116.557 75.72 116.517 75.2 116.263 74.88C116.023 74.56 115.477 74.36 114.623 74.28V74.2C115.21 74.16 115.79 74.1667 116.363 74.22C116.95 74.26 117.463 74.3733 117.903 74.56C118.357 74.7467 118.69 75.04 118.903 75.44C119.13 75.8267 119.177 76.34 119.043 76.98L118.743 78.46ZM119.663 69.78C119.49 69.78 119.337 69.8067 119.203 69.86C119.07 69.9133 118.943 69.9867 118.823 70.08C118.583 70.2667 118.39 70.5333 118.243 70.88C118.097 71.2267 117.943 71.6 117.783 72C117.637 72.3867 117.45 72.7533 117.223 73.1C117.01 73.4467 116.717 73.7333 116.343 73.96C115.97 74.1733 115.477 74.2733 114.863 74.26L114.663 74.28L114.703 74.06C115.303 74.02 115.777 73.8867 116.123 73.66C116.47 73.42 116.743 73.1333 116.943 72.8C117.157 72.4667 117.33 72.1133 117.463 71.74C117.61 71.3667 117.757 71.0133 117.903 70.68C118.05 70.3333 118.257 70.0533 118.523 69.84C118.737 69.6667 118.95 69.5467 119.163 69.48C119.39 69.4133 119.59 69.38 119.763 69.38C120.417 69.38 120.89 69.5667 121.183 69.94C121.49 70.3 121.637 70.7267 121.623 71.22C121.61 71.54 121.53 71.8333 121.383 72.1C121.25 72.3667 121.057 72.5733 120.803 72.72C120.563 72.8667 120.277 72.94 119.943 72.94C119.517 72.94 119.19 72.8267 118.963 72.6C118.75 72.36 118.65 72.0867 118.663 71.78C118.663 71.3667 118.797 71 119.063 70.68C119.33 70.36 119.637 70.1133 119.983 69.94C119.943 69.8867 119.897 69.8467 119.843 69.82C119.79 69.7933 119.73 69.78 119.663 69.78ZM124.518 75.66C125.065 75.4467 125.585 75.2067 126.078 74.94C126.572 74.6733 126.992 74.38 127.338 74.06C127.858 73.5933 128.272 73.0533 128.578 72.44C128.898 71.8133 129.058 71.14 129.058 70.42C129.058 70.1533 129.032 69.98 128.978 69.9C128.925 69.8067 128.845 69.76 128.738 69.76C128.445 69.76 128.125 69.9133 127.778 70.22C127.445 70.5133 127.112 70.9133 126.778 71.42C126.445 71.9133 126.138 72.48 125.858 73.12C125.592 73.76 125.372 74.4267 125.198 75.12C125.038 75.8133 124.958 76.4867 124.958 77.14C124.958 77.8867 125.098 78.4 125.378 78.68C125.672 78.9467 126.045 79.08 126.498 79.08C126.858 79.08 127.305 78.96 127.838 78.72C128.372 78.48 128.898 78.0533 129.418 77.44L129.738 77.6C129.458 78.04 129.092 78.4667 128.638 78.88C128.185 79.2933 127.658 79.6333 127.058 79.9C126.458 80.1533 125.805 80.28 125.098 80.28C124.498 80.28 123.958 80.1733 123.478 79.96C123.012 79.7467 122.638 79.4333 122.358 79.02C122.092 78.5933 121.958 78.0733 121.958 77.46C121.958 76.7533 122.072 76.0267 122.298 75.28C122.538 74.5333 122.872 73.8133 123.298 73.12C123.725 72.4133 124.238 71.78 124.838 71.22C125.438 70.6467 126.105 70.2 126.838 69.88C127.572 69.5467 128.352 69.38 129.178 69.38C129.765 69.38 130.258 69.5133 130.658 69.78C131.058 70.0333 131.258 70.4267 131.258 70.96C131.258 71.48 131.112 71.9667 130.818 72.42C130.538 72.8733 130.158 73.2867 129.678 73.66C129.198 74.0333 128.658 74.3667 128.058 74.66C127.472 74.9533 126.865 75.2067 126.238 75.42C125.625 75.6333 125.045 75.8 124.498 75.92L124.518 75.66ZM134.393 80H131.573L134.013 71.36C134.107 71 134.133 70.7467 134.093 70.6C134.067 70.44 133.967 70.36 133.793 70.36C133.553 70.36 133.333 70.48 133.133 70.72C132.933 70.9467 132.72 71.3533 132.493 71.94L132.113 72.96H131.733L132.273 71.44C132.473 70.9067 132.713 70.4933 132.993 70.2C133.273 69.9067 133.587 69.7 133.933 69.58C134.293 69.4467 134.66 69.38 135.033 69.38C135.46 69.38 135.787 69.4667 136.013 69.64C136.24 69.8 136.393 70.02 136.473 70.3C136.553 70.58 136.58 70.8867 136.553 71.22C136.54 71.54 136.493 71.86 136.413 72.18L134.393 80ZM139.513 69.82C139.247 69.82 138.96 69.9 138.653 70.06C138.347 70.22 138.033 70.5067 137.713 70.92C137.393 71.3333 137.053 71.9067 136.693 72.64C136.347 73.3733 135.987 74.3133 135.613 75.46C135.253 76.5933 134.88 77.9667 134.493 79.58L134.933 76.88C135.36 75.4133 135.747 74.2 136.093 73.24C136.44 72.28 136.787 71.52 137.133 70.96C137.493 70.3867 137.867 69.98 138.253 69.74C138.653 69.5 139.107 69.38 139.613 69.38C140.133 69.38 140.533 69.5333 140.813 69.84C141.093 70.1467 141.233 70.5333 141.233 71C141.233 71.3733 141.147 71.72 140.973 72.04C140.813 72.3467 140.587 72.6 140.293 72.8C140.013 72.9867 139.693 73.08 139.333 73.08C138.947 73.08 138.647 72.98 138.433 72.78C138.22 72.5667 138.113 72.2667 138.113 71.88C138.113 71.56 138.187 71.2667 138.333 71C138.48 70.72 138.68 70.48 138.933 70.28C139.187 70.08 139.467 69.9467 139.773 69.88C139.733 69.8667 139.693 69.8533 139.653 69.84C139.613 69.8267 139.567 69.82 139.513 69.82Z" fill="#1E3CFF"/>
<defs>
<radialGradient id="paint0_radial_2_83" cx="0" cy="0" r="1" gradientUnits="userSpaceOnUse" gradientTransform="translate(74.5 78.5) rotate(90) scale(71.5 74.5)">
<stop stop-color="#D6E9FF" stop-opacity="0.47"/>
<stop offset="1" stop-color="#FFFFB8" stop-opacity="0.54"/>
</radialGradient>
</defs>
</svg>
