<svg width="149" height="143" viewBox="0 0 149 143" fill="none" xmlns="http://www.w3.org/2000/svg">
<path d="M148.5 71.5C148.5 110.693 115.389 142.5 74.5 142.5C33.6114 142.5 0.5 110.693 0.5 71.5C0.5 32.307 33.6114 0.5 74.5 0.5C115.389 0.5 148.5 32.307 148.5 71.5Z" fill="url(#paint0_radial_2_83)" stroke="black"/>
<path d="M33.377 77.32L33.777 75.72H49.617L49.217 77.32H33.377ZM41.777 75.72C43.2703 75.72 44.6036 75.4267 45.777 74.84C46.9503 74.2533 47.9636 73.48 48.817 72.52C49.7236 71.56 50.497 70.52 51.137 69.4C51.777 68.28 52.3103 67.1867 52.737 66.12H54.577C53.7236 68.5733 53.1103 70.5467 52.737 72.04C52.3636 73.48 51.9903 74.9733 51.617 76.52C51.3503 77.48 51.1103 78.4133 50.897 79.32C50.6836 80.2267 50.4436 81.2667 50.177 82.44C49.9636 83.56 49.6703 85.0533 49.297 86.92H47.537C47.5903 85.8533 47.5636 84.76 47.457 83.64C47.4036 82.52 47.1636 81.48 46.737 80.52C46.3103 79.56 45.617 78.7867 44.657 78.2C43.7503 77.6133 42.497 77.32 40.897 77.32L41.777 75.72ZM63.217 62.76C63.4303 59.6133 63.297 57.1333 62.817 55.32C62.337 53.4533 61.4036 52.1467 60.017 51.4C58.6836 50.6 56.817 50.2 54.417 50.2H51.937C50.177 50.2 48.7903 50.36 47.777 50.68C46.817 50.9467 46.0436 51.56 45.457 52.52C44.9236 53.4267 44.3903 54.8667 43.857 56.84L33.297 96.52C32.7636 98.44 32.5236 99.88 32.577 100.84C32.6836 101.8 33.137 102.44 33.937 102.76C34.7903 103.027 36.097 103.16 37.857 103.16H40.817C43.697 103.16 46.1236 102.707 48.097 101.8C50.0703 100.893 51.8303 99.4267 53.377 97.4C54.977 95.32 56.5503 92.52 58.097 89H59.937C59.6703 89.6933 59.377 90.5467 59.057 91.56C58.737 92.5733 58.4436 93.64 58.177 94.76C57.9103 95.7733 57.5636 97.24 57.137 99.16C56.7103 101.027 56.3636 102.973 56.097 105C53.377 104.893 50.337 104.84 46.977 104.84C43.617 104.787 40.6036 104.76 37.937 104.76C36.6036 104.76 34.897 104.76 32.817 104.76C30.7903 104.76 28.577 104.787 26.177 104.84C23.777 104.84 21.3503 104.867 18.897 104.92C16.4436 104.92 14.1236 104.947 11.937 105L12.337 103.4C14.1503 103.293 15.5636 103.08 16.577 102.76C17.5903 102.44 18.3636 101.8 18.897 100.84C19.4836 99.88 20.0436 98.44 20.577 96.52L31.137 56.84C31.6703 54.8667 31.8836 53.4267 31.777 52.52C31.6703 51.56 31.1903 50.92 30.337 50.6C29.537 50.2267 28.2303 50.0133 26.417 49.96L26.817 48.36C29.0036 48.4133 31.3236 48.4667 33.777 48.52C36.2303 48.52 38.657 48.5467 41.057 48.6C43.457 48.6 45.6703 48.6 47.697 48.6C49.777 48.6 51.4836 48.6 52.817 48.6C55.217 48.6 57.9103 48.6 60.897 48.6C63.937 48.5467 66.657 48.4667 69.057 48.36C68.3636 50.2267 67.777 51.9067 67.297 53.4C66.817 54.8933 66.3903 56.36 66.017 57.8C65.8036 58.76 65.5903 59.6667 65.377 60.52C65.217 61.3733 65.0836 62.12 64.977 62.76H63.217ZM72.7751 103.32C72.8417 103.667 72.9284 103.907 73.0351 104.04C73.1417 104.173 73.2817 104.24 73.4551 104.24C73.6417 104.24 73.8284 104.133 74.0151 103.92C74.2151 103.693 74.4351 103.227 74.6751 102.52L74.9351 101.78H75.3151L74.8151 103.24C74.6284 103.8 74.3884 104.227 74.0951 104.52C73.8017 104.813 73.4817 105.013 73.1351 105.12C72.7884 105.227 72.4551 105.28 72.1351 105.28C71.5484 105.28 71.0484 105.14 70.6351 104.86C70.2351 104.58 69.9951 104.067 69.9151 103.32L69.1151 96.34C69.0617 95.9933 68.9751 95.7667 68.8551 95.66C68.7351 95.5533 68.5884 95.5 68.4151 95.5C68.2951 95.5 68.1751 95.54 68.0551 95.62C67.9351 95.6867 67.8084 95.84 67.6751 96.08C67.5417 96.3067 67.3884 96.66 67.2151 97.14L66.9551 97.88H66.5751L67.0751 96.42C67.2751 95.86 67.5217 95.4333 67.8151 95.14C68.1084 94.8467 68.4351 94.6467 68.7951 94.54C69.1551 94.4333 69.5017 94.38 69.8351 94.38C70.4617 94.38 70.9617 94.5267 71.3351 94.82C71.7084 95.1 71.9351 95.66 72.0151 96.5L72.7751 103.32ZM73.7551 95.8C73.4217 96.1733 73.1284 96.5933 72.8751 97.06C72.6217 97.5267 72.4084 98 72.2351 98.48C72.0617 98.9467 71.9151 99.3733 71.7951 99.76C71.7951 99.76 71.7284 99.76 71.5951 99.76C71.4617 99.7467 71.3951 99.74 71.3951 99.74C71.4484 99.5667 71.5217 99.3267 71.6151 99.02C71.7217 98.7133 71.8551 98.3667 72.0151 97.98C72.1751 97.58 72.3684 97.18 72.5951 96.78C72.8217 96.3667 73.0817 95.9733 73.3751 95.6C73.7484 95.1333 74.1151 94.8133 74.4751 94.64C74.8484 94.4667 75.2151 94.38 75.5751 94.38C76.0017 94.38 76.3484 94.4933 76.6151 94.72C76.8951 94.9467 77.0351 95.2733 77.0351 95.7C77.0351 96.1133 76.8951 96.46 76.6151 96.74C76.3351 97.0067 75.9751 97.14 75.5351 97.14C75.1617 97.14 74.8084 97.0333 74.4751 96.82C74.1551 96.6067 73.9151 96.2667 73.7551 95.8ZM67.8951 103.86C68.4017 103.287 68.8351 102.633 69.1951 101.9C69.5551 101.167 69.8284 100.5 70.0151 99.9C70.0151 99.9 70.0751 99.9067 70.1951 99.92C70.3284 99.9333 70.3951 99.94 70.3951 99.94C70.2884 100.313 70.1417 100.74 69.9551 101.22C69.7684 101.687 69.5351 102.167 69.2551 102.66C68.9884 103.14 68.6751 103.607 68.3151 104.06C67.9284 104.513 67.5484 104.827 67.1751 105C66.8017 105.187 66.4417 105.28 66.0951 105.28C65.6284 105.28 65.2684 105.167 65.0151 104.94C64.7617 104.713 64.6351 104.407 64.6351 104.02C64.6351 103.567 64.7884 103.207 65.0951 102.94C65.3884 102.66 65.7417 102.52 66.1551 102.52C66.5951 102.52 66.9551 102.647 67.2351 102.9C67.5284 103.153 67.7484 103.473 67.8951 103.86ZM84.2437 95.44C83.977 95.44 83.6837 95.6133 83.3637 95.96C83.057 96.2933 82.7437 96.7533 82.4237 97.34C82.117 97.9267 81.8237 98.5933 81.5437 99.34C81.2637 100.087 81.0303 100.867 80.8437 101.68L81.2037 99.64C81.6303 98.3867 82.057 97.3733 82.4837 96.6C82.9103 95.8267 83.357 95.2667 83.8237 94.92C84.3037 94.56 84.8103 94.38 85.3437 94.38C86.157 94.38 86.7703 94.6467 87.1837 95.18C87.6103 95.7 87.8237 96.46 87.8237 97.46C87.8237 98.0733 87.737 98.74 87.5637 99.46C87.4037 100.167 87.157 100.867 86.8237 101.56C86.4903 102.24 86.077 102.86 85.5837 103.42C85.1037 103.98 84.5503 104.433 83.9237 104.78C83.297 105.113 82.6037 105.28 81.8437 105.28C81.417 105.28 81.0237 105.2 80.6637 105.04C80.317 104.88 80.0637 104.667 79.9037 104.4L80.0437 104.08C80.177 104.307 80.3237 104.467 80.4837 104.56C80.657 104.653 80.8503 104.7 81.0637 104.7C81.4637 104.7 81.8503 104.54 82.2237 104.22C82.597 103.9 82.9437 103.473 83.2637 102.94C83.597 102.407 83.8837 101.813 84.1237 101.16C84.377 100.493 84.5703 99.8133 84.7037 99.12C84.837 98.4133 84.9037 97.74 84.9037 97.1C84.9037 96.4467 84.8437 96.0067 84.7237 95.78C84.6037 95.5533 84.4437 95.44 84.2437 95.44ZM80.8437 91.84C81.4037 91.8 81.9237 91.7333 82.4037 91.64C82.897 91.5467 83.3703 91.4267 83.8237 91.28L79.5037 106.5C79.317 107.193 79.3637 107.647 79.6437 107.86C79.9237 108.073 80.3903 108.187 81.0437 108.2L80.9237 108.62C80.617 108.607 80.177 108.587 79.6037 108.56C79.0303 108.547 78.417 108.54 77.7637 108.54C77.2303 108.54 76.697 108.547 76.1637 108.56C75.6303 108.587 75.2237 108.607 74.9437 108.62L75.0637 108.2C75.5437 108.2 75.8903 108.107 76.1037 107.92C76.317 107.747 76.4903 107.427 76.6237 106.96L80.8437 91.84ZM76.9837 98C77.4637 97.48 77.917 96.9667 78.3437 96.46C78.7703 95.94 79.1837 95.3267 79.5837 94.62C79.9837 93.9133 80.397 93.0267 80.8237 91.96L80.8837 92.28C80.6037 93.2 80.2703 94.0133 79.8837 94.72C79.5103 95.4133 79.097 96.04 78.6437 96.6C78.1903 97.16 77.7103 97.7133 77.2037 98.26L76.9837 98ZM91.0438 100.66C91.5905 100.447 92.1105 100.207 92.6038 99.94C93.0972 99.6733 93.5172 99.38 93.8638 99.06C94.3838 98.5933 94.7972 98.0533 95.1038 97.44C95.4238 96.8133 95.5838 96.14 95.5838 95.42C95.5838 95.1533 95.5572 94.98 95.5038 94.9C95.4505 94.8067 95.3705 94.76 95.2638 94.76C94.9705 94.76 94.6505 94.9133 94.3038 95.22C93.9705 95.5133 93.6372 95.9133 93.3038 96.42C92.9705 96.9133 92.6638 97.48 92.3838 98.12C92.1172 98.76 91.8972 99.4267 91.7238 100.12C91.5638 100.813 91.4838 101.487 91.4838 102.14C91.4838 102.887 91.6238 103.4 91.9038 103.68C92.1972 103.947 92.5705 104.08 93.0238 104.08C93.3838 104.08 93.8305 103.96 94.3638 103.72C94.8972 103.48 95.4238 103.053 95.9438 102.44L96.2638 102.6C95.9838 103.04 95.6172 103.467 95.1638 103.88C94.7105 104.293 94.1838 104.633 93.5838 104.9C92.9838 105.153 92.3305 105.28 91.6238 105.28C91.0238 105.28 90.4838 105.173 90.0038 104.96C89.5372 104.747 89.1638 104.433 88.8838 104.02C88.6172 103.593 88.4838 103.073 88.4838 102.46C88.4838 101.753 88.5972 101.027 88.8238 100.28C89.0638 99.5333 89.3972 98.8133 89.8238 98.12C90.2505 97.4133 90.7638 96.78 91.3638 96.22C91.9638 95.6467 92.6305 95.2 93.3638 94.88C94.0972 94.5467 94.8772 94.38 95.7038 94.38C96.2905 94.38 96.7838 94.5133 97.1838 94.78C97.5838 95.0333 97.7838 95.4267 97.7838 95.96C97.7838 96.48 97.6372 96.9667 97.3438 97.42C97.0638 97.8733 96.6838 98.2867 96.2038 98.66C95.7238 99.0333 95.1838 99.3667 94.5838 99.66C93.9972 99.9533 93.3905 100.207 92.7638 100.42C92.1505 100.633 91.5705 100.8 91.0238 100.92L91.0438 100.66ZM100.939 105H98.1188L100.539 96.36C100.605 96.1733 100.645 96.0067 100.659 95.86C100.685 95.7 100.672 95.58 100.619 95.5C100.565 95.4067 100.465 95.36 100.319 95.36C100.079 95.36 99.8588 95.4733 99.6588 95.7C99.4722 95.9133 99.2655 96.3267 99.0388 96.94L98.6588 97.96H98.2788L98.8188 96.44C99.0855 95.68 99.4322 95.1467 99.8588 94.84C100.299 94.5333 100.812 94.38 101.399 94.38C101.879 94.38 102.245 94.4667 102.499 94.64C102.752 94.8 102.919 95.02 102.999 95.3C103.092 95.58 103.125 95.8867 103.099 96.22C103.085 96.54 103.039 96.86 102.959 97.18L100.939 105ZM101.579 101.62C102.099 100.167 102.579 98.9733 103.019 98.04C103.472 97.0933 103.912 96.3533 104.339 95.82C104.779 95.2867 105.225 94.9133 105.679 94.7C106.132 94.4867 106.619 94.38 107.139 94.38C107.779 94.38 108.239 94.52 108.519 94.8C108.799 95.08 108.939 95.4533 108.939 95.92C108.939 96.3733 108.852 96.8667 108.679 97.4L106.719 103.3C106.585 103.673 106.552 103.933 106.619 104.08C106.685 104.227 106.805 104.3 106.979 104.3C107.152 104.3 107.345 104.207 107.559 104.02C107.772 103.82 107.999 103.387 108.239 102.72L108.599 101.76H108.979L108.479 103.22C108.292 103.78 108.045 104.207 107.739 104.5C107.445 104.793 107.125 104.993 106.779 105.1C106.445 105.22 106.119 105.28 105.799 105.28C105.412 105.28 105.085 105.22 104.819 105.1C104.552 104.993 104.345 104.833 104.199 104.62C104.025 104.353 103.939 104.02 103.939 103.62C103.952 103.207 104.059 102.7 104.259 102.1L106.059 96.7C106.139 96.4867 106.192 96.28 106.219 96.08C106.245 95.88 106.239 95.7133 106.199 95.58C106.159 95.4467 106.045 95.38 105.859 95.38C105.605 95.38 105.319 95.5467 104.999 95.88C104.679 96.2 104.339 96.6533 103.979 97.24C103.632 97.8133 103.285 98.4867 102.939 99.26C102.592 100.033 102.259 100.86 101.939 101.74C101.619 102.607 101.332 103.5 101.079 104.42L101.579 101.62ZM111.33 104.72C111.436 104.773 111.55 104.813 111.67 104.84C111.79 104.853 111.936 104.86 112.11 104.86C112.603 104.86 113.003 104.713 113.31 104.42C113.63 104.113 113.79 103.687 113.79 103.14C113.79 102.7 113.696 102.253 113.51 101.8C113.323 101.333 113.043 100.827 112.67 100.28C112.363 99.8 112.076 99.3333 111.81 98.88C111.556 98.4267 111.43 97.9067 111.43 97.32C111.43 96.7467 111.576 96.24 111.87 95.8C112.163 95.36 112.576 95.0133 113.11 94.76C113.656 94.5067 114.31 94.38 115.07 94.38C115.563 94.38 116.036 94.44 116.49 94.56C116.956 94.68 117.343 94.8867 117.65 95.18C117.956 95.4733 118.11 95.9 118.11 96.46C118.11 96.66 118.063 96.88 117.97 97.12C117.89 97.36 117.756 97.56 117.57 97.72C117.396 97.8667 117.17 97.94 116.89 97.94C116.556 97.94 116.29 97.82 116.09 97.58C115.89 97.3267 115.79 97 115.79 96.6C115.79 96.24 115.85 95.92 115.97 95.64C116.103 95.3467 116.25 95.1133 116.41 94.94C116.236 94.8333 116.003 94.78 115.71 94.78C115.23 94.78 114.85 94.9267 114.57 95.22C114.303 95.5133 114.163 95.9333 114.15 96.48C114.15 96.7867 114.203 97.08 114.31 97.36C114.416 97.6267 114.563 97.9 114.75 98.18C114.936 98.46 115.136 98.7733 115.35 99.12C115.75 99.7733 116.043 100.333 116.23 100.8C116.43 101.267 116.53 101.74 116.53 102.22C116.53 102.793 116.376 103.313 116.07 103.78C115.776 104.233 115.343 104.6 114.77 104.88C114.21 105.147 113.543 105.28 112.77 105.28C112.21 105.28 111.676 105.207 111.17 105.06C110.663 104.913 110.25 104.673 109.93 104.34C109.623 103.993 109.47 103.533 109.47 102.96C109.47 102.587 109.57 102.253 109.77 101.96C109.956 101.667 110.23 101.52 110.59 101.52C110.95 101.52 111.23 101.673 111.43 101.98C111.63 102.273 111.73 102.64 111.73 103.08C111.73 103.427 111.676 103.74 111.57 104.02C111.476 104.3 111.396 104.533 111.33 104.72ZM120.868 100.66C121.415 100.447 121.935 100.207 122.428 99.94C122.921 99.6733 123.341 99.38 123.688 99.06C124.208 98.5933 124.621 98.0533 124.928 97.44C125.248 96.8133 125.408 96.14 125.408 95.42C125.408 95.1533 125.381 94.98 125.328 94.9C125.275 94.8067 125.195 94.76 125.088 94.76C124.795 94.76 124.475 94.9133 124.128 95.22C123.795 95.5133 123.461 95.9133 123.128 96.42C122.795 96.9133 122.488 97.48 122.208 98.12C121.941 98.76 121.721 99.4267 121.548 100.12C121.388 100.813 121.308 101.487 121.308 102.14C121.308 102.887 121.448 103.4 121.728 103.68C122.021 103.947 122.395 104.08 122.848 104.08C123.208 104.08 123.655 103.96 124.188 103.72C124.721 103.48 125.248 103.053 125.768 102.44L126.088 102.6C125.808 103.04 125.441 103.467 124.988 103.88C124.535 104.293 124.008 104.633 123.408 104.9C122.808 105.153 122.155 105.28 121.448 105.28C120.848 105.28 120.308 105.173 119.828 104.96C119.361 104.747 118.988 104.433 118.708 104.02C118.441 103.593 118.308 103.073 118.308 102.46C118.308 101.753 118.421 101.027 118.648 100.28C118.888 99.5333 119.221 98.8133 119.648 98.12C120.075 97.4133 120.588 96.78 121.188 96.22C121.788 95.6467 122.455 95.2 123.188 94.88C123.921 94.5467 124.701 94.38 125.528 94.38C126.115 94.38 126.608 94.5133 127.008 94.78C127.408 95.0333 127.608 95.4267 127.608 95.96C127.608 96.48 127.461 96.9667 127.168 97.42C126.888 97.8733 126.508 98.2867 126.028 98.66C125.548 99.0333 125.008 99.3667 124.408 99.66C123.821 99.9533 123.215 100.207 122.588 100.42C121.975 100.633 121.395 100.8 120.848 100.92L120.868 100.66Z" fill="black"/>
<path d="M104.603 18.36C106.523 18.36 108.016 18.9467 109.083 20.12C110.203 21.24 110.763 22.52 110.763 23.96C110.763 25.6667 110.256 27.16 109.243 28.44C108.283 29.72 106.95 30.76 105.243 31.56C103.643 32.3067 101.723 32.8933 99.483 33.32C97.243 33.6933 94.7097 33.88 91.883 33.88C89.9097 33.88 87.7764 33.8 85.4831 33.64C83.243 33.4267 80.923 33.1867 78.523 32.92C76.1764 32.6533 73.8564 32.44 71.563 32.28C69.323 32.0667 67.2164 31.96 65.243 31.96C63.4297 31.96 61.6964 32.0667 60.043 32.28C58.3897 32.44 57.1097 32.7867 56.203 33.32C57.5897 33.6933 58.7364 34.4667 59.643 35.64C60.5497 36.8133 61.003 38.2 61.003 39.8C61.003 41.6133 60.4164 43.1867 59.243 44.52C58.123 45.8533 56.6297 46.52 54.763 46.52C52.8964 46.52 51.4564 45.9067 50.443 44.68C49.483 43.4 49.003 41.9067 49.003 40.2C49.003 38.92 49.3497 37.56 50.043 36.12C50.7897 34.6267 52.1764 33.4 54.203 32.44C55.483 31.8 56.8164 31.3467 58.203 31.08C59.5897 30.8133 60.8964 30.6533 62.123 30.6C63.3497 30.5467 64.283 30.52 64.923 30.52C68.2297 30.52 71.4564 30.68 74.603 31C77.7497 31.2667 80.8164 31.56 83.803 31.88C86.843 32.1467 89.7764 32.28 92.6031 32.28C94.683 32.28 96.4164 32.1733 97.8031 31.96C99.2431 31.7467 100.55 31.4267 101.723 31L101.563 31.64C100.763 31 100.016 30.0933 99.323 28.92C98.6297 27.7467 98.283 26.4133 98.283 24.92C98.283 23 98.843 21.4267 99.9631 20.2C101.136 18.9733 102.683 18.36 104.603 18.36ZM75.003 31.88C75.003 31.88 75.403 31.9333 76.203 32.04C77.0564 32.0933 78.0964 32.1733 79.323 32.28C80.5497 32.3867 81.7764 32.4933 83.003 32.6C84.2297 32.7067 85.2697 32.8133 86.123 32.92C86.9764 32.9733 87.4031 33 87.4031 33L75.483 77.72C75.003 79.64 74.8164 81.16 74.923 82.28C75.083 83.3467 75.6697 84.12 76.683 84.6C77.7497 85.0267 79.3497 85.2933 81.483 85.4L81.163 87C79.5097 86.8933 77.3497 86.84 74.683 86.84C72.0164 86.7867 69.243 86.76 66.363 86.76C63.5897 86.76 60.923 86.7867 58.363 86.84C55.8564 86.84 53.8297 86.8933 52.283 87L52.603 85.4C54.843 85.2933 56.603 85.0267 57.883 84.6C59.2164 84.12 60.2297 83.3467 60.923 82.28C61.6697 81.16 62.283 79.64 62.763 77.72L75.003 31.88ZM99.6962 87H96.8762L99.3162 78.36C99.4095 78 99.4362 77.7467 99.3962 77.6C99.3695 77.44 99.2695 77.36 99.0962 77.36C98.8562 77.36 98.6362 77.48 98.4362 77.72C98.2362 77.9467 98.0228 78.3533 97.7962 78.94L97.4162 79.96H97.0362L97.5762 78.44C97.7762 77.9067 98.0162 77.4933 98.2962 77.2C98.5762 76.9067 98.8895 76.7 99.2362 76.58C99.5962 76.4467 99.9628 76.38 100.336 76.38C100.763 76.38 101.09 76.4667 101.316 76.64C101.543 76.8 101.696 77.02 101.776 77.3C101.856 77.58 101.883 77.8867 101.856 78.22C101.843 78.54 101.796 78.86 101.716 79.18L99.6962 87ZM104.816 76.82C104.55 76.82 104.263 76.9 103.956 77.06C103.65 77.22 103.336 77.5067 103.016 77.92C102.696 78.3333 102.356 78.9067 101.996 79.64C101.65 80.3733 101.29 81.3133 100.916 82.46C100.556 83.5933 100.183 84.9667 99.7962 86.58L100.236 83.88C100.663 82.4133 101.05 81.2 101.396 80.24C101.743 79.28 102.09 78.52 102.436 77.96C102.796 77.3867 103.17 76.98 103.556 76.74C103.956 76.5 104.41 76.38 104.916 76.38C105.436 76.38 105.836 76.5333 106.116 76.84C106.396 77.1467 106.536 77.5333 106.536 78C106.536 78.3733 106.45 78.72 106.276 79.04C106.116 79.3467 105.89 79.6 105.596 79.8C105.316 79.9867 104.996 80.08 104.636 80.08C104.25 80.08 103.95 79.98 103.736 79.78C103.523 79.5667 103.416 79.2667 103.416 78.88C103.416 78.56 103.49 78.2667 103.636 78C103.783 77.72 103.983 77.48 104.236 77.28C104.49 77.08 104.77 76.9467 105.076 76.88C105.036 76.8667 104.996 76.8533 104.956 76.84C104.916 76.8267 104.87 76.82 104.816 76.82ZM109.197 86.2C109.411 86.2 109.644 86.0867 109.897 85.86C110.151 85.6333 110.411 85.3067 110.677 84.88C110.944 84.44 111.204 83.9067 111.457 83.28C111.711 82.6533 111.944 81.9267 112.157 81.1L111.717 83.28C111.384 84.2667 111.017 85.0533 110.617 85.64C110.217 86.2267 109.791 86.6467 109.337 86.9C108.884 87.1533 108.411 87.28 107.917 87.28C107.171 87.28 106.611 87.06 106.237 86.62C105.864 86.18 105.677 85.58 105.677 84.82C105.677 84.1 105.797 83.3467 106.037 82.56C106.291 81.7733 106.624 81.0133 107.037 80.28C107.464 79.5467 107.937 78.8867 108.457 78.3C108.991 77.7133 109.551 77.2467 110.137 76.9C110.737 76.5533 111.324 76.38 111.897 76.38C112.337 76.38 112.677 76.5533 112.917 76.9C113.157 77.2467 113.231 77.7867 113.137 78.52L112.917 78.64C112.984 78.16 112.957 77.7867 112.837 77.52C112.731 77.2533 112.544 77.12 112.277 77.12C112.011 77.12 111.711 77.2733 111.377 77.58C111.057 77.8867 110.737 78.3067 110.417 78.84C110.097 79.3733 109.797 79.98 109.517 80.66C109.251 81.3267 109.037 82.0333 108.877 82.78C108.717 83.5133 108.637 84.24 108.637 84.96C108.637 85.4133 108.684 85.7333 108.777 85.92C108.871 86.1067 109.011 86.2 109.197 86.2ZM113.437 76.68C114.011 76.6667 114.531 76.64 114.997 76.6C115.464 76.5467 115.911 76.4733 116.337 76.38L113.717 85.3C113.677 85.4733 113.644 85.64 113.617 85.8C113.604 85.9467 113.624 86.0667 113.677 86.16C113.744 86.2533 113.851 86.3 113.997 86.3C114.171 86.3 114.364 86.2 114.577 86C114.791 85.7867 115.011 85.36 115.237 84.72L115.597 83.76H115.977L115.477 85.22C115.291 85.7667 115.051 86.1867 114.757 86.48C114.464 86.7733 114.151 86.98 113.817 87.1C113.484 87.22 113.157 87.28 112.837 87.28C112.144 87.28 111.651 87.0733 111.357 86.66C111.157 86.3667 111.064 86.0067 111.077 85.58C111.104 85.14 111.197 84.64 111.357 84.08L113.437 76.68ZM124.01 76.78C123.516 76.78 123.03 76.9933 122.55 77.42C122.07 77.8333 121.636 78.3933 121.25 79.1C120.876 79.8067 120.576 80.6 120.35 81.48C120.123 82.36 120.01 83.2667 120.01 84.2C120.01 84.9067 120.15 85.42 120.43 85.74C120.71 86.0467 121.076 86.2 121.53 86.2C121.956 86.2 122.39 86.0733 122.83 85.82C123.27 85.5667 123.716 85.1067 124.17 84.44L124.57 84.6C124.303 85.04 123.956 85.4667 123.53 85.88C123.116 86.2933 122.63 86.6333 122.07 86.9C121.523 87.1533 120.903 87.28 120.21 87.28C119.276 87.28 118.51 87.0333 117.91 86.54C117.31 86.0333 117.01 85.2533 117.01 84.2C117.01 83.5467 117.11 82.86 117.31 82.14C117.523 81.42 117.823 80.72 118.21 80.04C118.596 79.3467 119.07 78.7267 119.63 78.18C120.19 77.6333 120.823 77.2 121.53 76.88C122.236 76.5467 123.003 76.38 123.83 76.38C124.563 76.38 125.15 76.5667 125.59 76.94C126.043 77.3 126.27 77.7533 126.27 78.3C126.27 78.66 126.183 79.0133 126.01 79.36C125.836 79.6933 125.596 79.9733 125.29 80.2C124.996 80.4133 124.663 80.52 124.29 80.52C123.97 80.52 123.696 80.42 123.47 80.22C123.256 80.0067 123.15 79.72 123.15 79.36C123.15 78.8133 123.33 78.3467 123.69 77.96C124.063 77.56 124.49 77.3 124.97 77.18C124.863 77.0467 124.73 76.9467 124.57 76.88C124.423 76.8133 124.236 76.78 124.01 76.78ZM128.727 82.66C129.274 82.4467 129.794 82.2067 130.287 81.94C130.781 81.6733 131.201 81.38 131.547 81.06C132.067 80.5933 132.481 80.0533 132.787 79.44C133.107 78.8133 133.267 78.14 133.267 77.42C133.267 77.1533 133.241 76.98 133.187 76.9C133.134 76.8067 133.054 76.76 132.947 76.76C132.654 76.76 132.334 76.9133 131.987 77.22C131.654 77.5133 131.321 77.9133 130.987 78.42C130.654 78.9133 130.347 79.48 130.067 80.12C129.801 80.76 129.581 81.4267 129.407 82.12C129.247 82.8133 129.167 83.4867 129.167 84.14C129.167 84.8867 129.307 85.4 129.587 85.68C129.881 85.9467 130.254 86.08 130.707 86.08C131.067 86.08 131.514 85.96 132.047 85.72C132.581 85.48 133.107 85.0533 133.627 84.44L133.947 84.6C133.667 85.04 133.301 85.4667 132.847 85.88C132.394 86.2933 131.867 86.6333 131.267 86.9C130.667 87.1533 130.014 87.28 129.307 87.28C128.707 87.28 128.167 87.1733 127.687 86.96C127.221 86.7467 126.847 86.4333 126.567 86.02C126.301 85.5933 126.167 85.0733 126.167 84.46C126.167 83.7533 126.281 83.0267 126.507 82.28C126.747 81.5333 127.081 80.8133 127.507 80.12C127.934 79.4133 128.447 78.78 129.047 78.22C129.647 77.6467 130.314 77.2 131.047 76.88C131.781 76.5467 132.561 76.38 133.387 76.38C133.974 76.38 134.467 76.5133 134.867 76.78C135.267 77.0333 135.467 77.4267 135.467 77.96C135.467 78.48 135.321 78.9667 135.027 79.42C134.747 79.8733 134.367 80.2867 133.887 80.66C133.407 81.0333 132.867 81.3667 132.267 81.66C131.681 81.9533 131.074 82.2067 130.447 82.42C129.834 82.6333 129.254 82.8 128.707 82.92L128.727 82.66ZM138.602 87H135.782L138.222 78.36C138.316 78 138.342 77.7467 138.302 77.6C138.276 77.44 138.176 77.36 138.002 77.36C137.762 77.36 137.542 77.48 137.342 77.72C137.142 77.9467 136.929 78.3533 136.702 78.94L136.322 79.96H135.942L136.482 78.44C136.682 77.9067 136.922 77.4933 137.202 77.2C137.482 76.9067 137.796 76.7 138.142 76.58C138.502 76.4467 138.869 76.38 139.242 76.38C139.669 76.38 139.996 76.4667 140.222 76.64C140.449 76.8 140.602 77.02 140.682 77.3C140.762 77.58 140.789 77.8867 140.762 78.22C140.749 78.54 140.702 78.86 140.622 79.18L138.602 87ZM143.722 76.82C143.456 76.82 143.169 76.9 142.862 77.06C142.556 77.22 142.242 77.5067 141.922 77.92C141.602 78.3333 141.262 78.9067 140.902 79.64C140.556 80.3733 140.196 81.3133 139.822 82.46C139.462 83.5933 139.089 84.9667 138.702 86.58L139.142 83.88C139.569 82.4133 139.956 81.2 140.302 80.24C140.649 79.28 140.996 78.52 141.342 77.96C141.702 77.3867 142.076 76.98 142.462 76.74C142.862 76.5 143.316 76.38 143.822 76.38C144.342 76.38 144.742 76.5333 145.022 76.84C145.302 77.1467 145.442 77.5333 145.442 78C145.442 78.3733 145.356 78.72 145.182 79.04C145.022 79.3467 144.796 79.6 144.502 79.8C144.222 79.9867 143.902 80.08 143.542 80.08C143.156 80.08 142.856 79.98 142.642 79.78C142.429 79.5667 142.322 79.2667 142.322 78.88C142.322 78.56 142.396 78.2667 142.542 78C142.689 77.72 142.889 77.48 143.142 77.28C143.396 77.08 143.676 76.9467 143.982 76.88C143.942 76.8667 143.902 76.8533 143.862 76.84C143.822 76.8267 143.776 76.82 143.722 76.82Z" fill="#1E3CFF"/>
<defs>
<radialGradient id="paint0_radial_2_83" cx="0" cy="0" r="1" gradientUnits="userSpaceOnUse" gradientTransform="translate(74.5 71.5) rotate(90) scale(71.5 74.5)">
<stop stop-color="#D6E9FF" stop-opacity="0.47"/>
<stop offset="1" stop-color="#FFFFB8" stop-opacity="0.54"/>
</radialGradient>
</defs>
</svg>
